<?xml version="1.0" encoding="utf-8"?>
<svg xmlns="http://www.w3.org/2000/svg" version="1.1" viewBox="0 0 1400 340">
	<title>The titlepage for the Standard Ebooks edition of Mansfield Park, by Jane Austen</title>
	<g aria-label="MANSFIELD PARK">
		<path d="M309.89,130.00l-3.65-45.75l-0.47,0.00l-15.81,45.29l-10.48,0.00l-15.81-45.29l-0.47,0.00l-3.65,45.75l-17.59,0.00l6.92-77.19l18.71,0.00l17.12,44.54l17.12-44.54l18.71,0.00l6.92,77.19l-17.59,0.00z"/>
		<path d="M378.79,52.81l31.16,77.19l-18.90,0.00l-5.71-15.44l-29.38,0.00l-5.71,15.44l-18.90,0.00l31.16-77.19l16.28,0.00z  M379.35,99.12l-8.61-22.46l-0.19,0.00l-8.61,22.46l17.40,0.00z"/>
		<path d="M435.54,82.09l0.00,47.91l-17.59,0.00l0.00-77.19l17.59,0.00l30.69,47.91l0.19,0.00l0.00-47.91l17.59,0.00l0.00,77.19l-17.59,0.00l-30.69-47.91l-0.19,0.00z"/>
		<path d="M526.80,51.40c14.04,0.00,23.95,7.30,23.95,7.30l-7.11,14.04s-7.67-5.33-15.63-5.33c-5.99,0.00-9.17,2.71-9.17,6.92c0.00,4.30,7.30,7.39,16.09,11.13c8.61,3.65,18.06,10.95,18.06,21.05c0.00,18.43-14.04,24.89-29.10,24.89c-18.06,0.00-29.01-10.20-29.01-10.20l8.80-14.78s10.29,8.70,18.90,8.70c3.84,0.00,11.13-0.37,11.13-7.58c0.00-5.61-8.23-8.14-17.40-12.73c-9.26-4.58-14.69-11.79-14.69-19.84c0.00-14.41,12.73-23.58,25.17-23.58z"/>
		<path d="M610.87,52.81l0.00,15.44l-27.04,0.00l0.00,15.35l24.98,0.00l0.00,15.44l-24.98,0.00l0.00,30.97l-17.59,0.00l0.00-77.19l44.63,0.00z"/>
		<path d="M641.88,52.81l0.00,77.19l-17.59,0.00l0.00-77.19l17.59,0.00z"/>
		<path d="M702.27,52.81l0.00,15.44l-26.57,0.00l0.00,15.35l25.45,0.00l0.00,15.44l-25.45,0.00l0.00,15.53l26.57,0.00l0.00,15.44l-44.16,0.00l0.00-77.19l44.16,0.00z"/>
		<path d="M734.97,52.81l0.00,61.75l26.57,0.00l0.00,15.44l-44.16,0.00l0.00-77.19l17.59,0.00z"/>
		<path d="M775.24,52.81l22.36,0.00c21.15,0.00,38.92,16.09,38.92,38.55c0.00,22.55-17.68,38.64-38.92,38.64l-22.36,0.00l0.00-77.19z  M792.83,114.28l2.71,0.00c13.01,0.00,21.89-9.92,21.99-22.83c0.00-12.91-8.89-22.92-21.99-22.92l-2.71,0.00l0.00,45.75z"/>
		<path d="M879.84,52.81l28.16,0.00c15.06,0.00,26.39,7.77,26.39,23.77c0.00,15.91-11.32,24.80-26.39,24.80l-10.57,0.00l0.00,28.63l-17.59,0.00l0.00-77.19z  M897.43,87.33l4.96,0.00c6.92,0.00,13.47-2.34,13.47-10.20c0.00-7.95-6.55-10.29-13.47-10.29l-4.96,0.00l0.00,20.49z"/>
		<path d="M980.37,52.81l31.16,77.19l-18.90,0.00l-5.71-15.44l-29.38,0.00l-5.71,15.44l-18.90,0.00l31.16-77.19l16.28,0.00z  M980.93,99.12l-8.61-22.46l-0.19,0.00l-8.61,22.46l17.40,0.00z"/>
		<path d="M1019.52,52.81l27.60,0.00c14.32,0.00,25.17,7.77,25.17,22.92c0.00,11.60-6.36,19.37-15.81,22.36l26.57,31.91l-22.36,0.00l-23.58-30.50l0.00,30.50l-17.59,0.00l0.00-77.19z  M1037.11,87.05l2.06,0.00c6.64,0.00,14.60-0.47,14.60-10.11s-7.95-10.11-14.60-10.11l-2.06,0.00l0.00,20.21z"/>
		<path d="M1161.79,130.00l-24.23,0.00l-28.44-32.75l0.00,32.75l-17.59,0.00l0.00-77.19l17.59,0.00l0.00,31.53l26.48-31.53l21.33,0.00l-31.06,36.58z"/>
	</g>
	<g aria-label="JANE AUSTEN">
		<path d="M456.47,232.11l0.00,41.54c0.00,11.37-6.46,17.40-18.04,17.40c-8.28,0.00-13.54-5.54-13.54-5.54l4.21-11.02s4.14,3.93,7.51,3.93c3.79,0.00,6.67-2.32,6.67-8.14l0.00-38.18l13.19,0.00z"/>
		<path d="M498.60,232.11l23.37,57.89l-14.18,0.00l-4.28-11.58l-22.04,0.00l-4.28,11.58l-14.18,0.00l23.37-57.89l12.21,0.00z  M499.02,266.84l-6.46-16.84l-0.14,0.00l-6.46,16.84l13.05,0.00z"/>
		<path d="M542.40,254.07l0.00,35.93l-13.19,0.00l0.00-57.89l13.19,0.00l23.02,35.93l0.14,0.00l0.00-35.93l13.19,0.00l0.00,57.89l-13.19,0.00l-23.02-35.93l-0.14,0.00z"/>
		<path d="M625.30,232.11l0.00,11.58l-19.93,0.00l0.00,11.51l19.09,0.00l0.00,11.58l-19.09,0.00l0.00,11.65l19.93,0.00l0.00,11.58l-33.12,0.00l0.00-57.89l33.12,0.00z"/>
		<path d="M691.44,232.11l23.37,57.89l-14.18,0.00l-4.28-11.58l-22.04,0.00l-4.28,11.58l-14.18,0.00l23.37-57.89l12.21,0.00z  M691.86,266.84l-6.46-16.84l-0.14,0.00l-6.46,16.84l13.05,0.00z"/>
		<path d="M766.54,232.11l0.00,37.33c0.00,14.32-7.86,21.61-22.60,21.61s-22.60-7.30-22.60-21.61l0.00-37.33l13.19,0.00l0.00,33.47c0.00,9.68,2.95,12.49,9.40,12.49s9.40-2.81,9.40-12.49l0.00-33.47l13.19,0.00z"/>
		<path d="M799.19,231.05c10.53,0.00,17.96,5.47,17.96,5.47l-5.33,10.53s-5.75-4.00-11.72-4.00c-4.49,0.00-6.88,2.04-6.88,5.19c0.00,3.23,5.47,5.54,12.07,8.35c6.46,2.74,13.54,8.21,13.54,15.79c0.00,13.82-10.53,18.67-21.82,18.67c-13.54,0.00-21.75-7.65-21.75-7.65l6.60-11.09s7.72,6.53,14.18,6.53c2.88,0.00,8.35-0.28,8.35-5.68c0.00-4.21-6.18-6.11-13.05-9.54c-6.95-3.44-11.02-8.84-11.02-14.88c0.00-10.81,9.54-17.68,18.88-17.68z"/>
		<path d="M823.00,243.68l0.00-11.58l40.70,0.00l0.00,11.58l-13.75,0.00l0.00,46.32l-13.19,0.00l0.00-46.32l-13.75,0.00z"/>
		<path d="M906.60,232.11l0.00,11.58l-19.93,0.00l0.00,11.51l19.09,0.00l0.00,11.58l-19.09,0.00l0.00,11.65l19.93,0.00l0.00,11.58l-33.12,0.00l0.00-57.89l33.12,0.00z"/>
		<path d="M932.37,254.07l0.00,35.93l-13.19,0.00l0.00-57.89l13.19,0.00l23.02,35.93l0.14,0.00l0.00-35.93l13.19,0.00l0.00,57.89l-13.19,0.00l-23.02-35.93l-0.14,0.00z"/>
	</g>
</svg>
